<?xml version="1.0" encoding="UTF-8"?>
<svg width="400" height="300" viewBox="0 0 400 300" xmlns="http://www.w3.org/2000/svg">
  <defs>
    <linearGradient id="boatGradient" x1="0%" y1="0%" x2="100%" y2="100%">
      <stop offset="0%" style="stop-color:#667eea;stop-opacity:1" />
      <stop offset="100%" style="stop-color:#764ba2;stop-opacity:1" />
    </linearGradient>
    <linearGradient id="sailGradient" x1="0%" y1="0%" x2="100%" y2="0%">
      <stop offset="0%" style="stop-color:#3498DB;stop-opacity:1" />
      <stop offset="100%" style="stop-color:#2980B9;stop-opacity:1" />
    </linearGradient>
  </defs>
  
  <!-- Hull of the boat -->
  <path d="M80 200 Q150 230 200 230 Q250 230 320 200 L80 200 Z" fill="url(#boatGradient)"/>
  
  <!-- Mast -->
  <rect x="195" y="80" width="10" height="120" fill="#34495E"/>
  
  <!-- Sail shaped like a speech bubble -->
  <path d="M200 80 L200 160 Q240 150 260 120 Q240 100 220 90 L200 80 Z" fill="url(#sailGradient)"/>
  
  <!-- Speech bubble tail -->
  <path d="M200 160 L190 170 L210 170 Z" fill="url(#sailGradient)"/>
  
  <!-- Three figures (circles for heads, rectangles for bodies) -->
  <circle cx="120" cy="195" r="8" fill="#ECF0F1"/>
  <rect x="115" y="195" width="10" height="15" fill="#ECF0F1"/>
  
  <circle cx="180" cy="195" r="8" fill="#ECF0F1"/>
  <rect x="175" y="195" width="10" height="15" fill="#ECF0F1"/>
  
  <circle cx="240" cy="195" r="8" fill="#ECF0F1"/>
  <rect x="235" y="195" width="10" height="15" fill="#ECF0F1"/>
  
  <!-- Water waves -->
  <path d="M50 250 Q100 240 150 250 Q200 260 250 250 Q300 240 350 250" fill="none" stroke="#3498DB" stroke-width="2" opacity="0.6"/>
  <path d="M60 260 Q110 250 160 260 Q210 270 260 260 Q310 250 360 260" fill="none" stroke="#3498DB" stroke-width="1" opacity="0.4"/>
</svg> 